<?xml version="1.0" encoding="utf-8"?>
<!-- Generator: Adobe Illustrator 22.1.0, SVG Export Plug-In . SVG Version: 6.00 Build 0)  -->
<svg version="1.1" id="Capa_1" xmlns="http://www.w3.org/2000/svg" xmlns:xlink="http://www.w3.org/1999/xlink" x="0px" y="0px"
	 viewBox="0 0 99 99" style="enable-background:new 0 0 99 99;" xml:space="preserve">
<metadata><?xpacket begin="﻿" id="W5M0MpCehiHzreSzNTczkc9d"?>
<x:xmpmeta xmlns:x="adobe:ns:meta/" x:xmptk="Adobe XMP Core 5.6-c143 79.161356, 2017/09/07-01:11:22        ">
   <rdf:RDF xmlns:rdf="http://www.w3.org/1999/02/22-rdf-syntax-ns#">
      <rdf:Description rdf:about=""/>
   </rdf:RDF>
</x:xmpmeta>
                                                                                                    
                                                                                                    
                                                                                                    
                                                                                                    
                                                                                                    
                                                                                                    
                                                                                                    
                                                                                                    
                                                                                                    
                                                                                                    
                                                                                                    
                                                                                                    
                                                                                                    
                                                                                                    
                                                                                                    
                                                                                                    
                                                                                                    
                                                                                                    
                                                                                                    
                                                                                                    
                           
<?xpacket end="w"?></metadata>
<style type="text/css">
	.st0{fill:#3E1744;}
	.st1{fill:#FFFFFF;}
</style>
<circle class="st0" cx="49.5" cy="49.5" r="49.5"/>
<g id="Shape">
	<path class="st1" d="M62,71c0,0-2.4-1.4-2.7-1.5L30.7,52.9c-0.6-0.3-0.9-0.9-0.9-1.6V27v-3.1c0,0,2.4,1.4,2.7,1.5
		c0.6,0.3,0.9,0.9,0.9,1.6v23.3l27.7,16c0.6,0.3,0.9,1,0.9,1.6C62,68.2,62,71,62,71L62,71L62,71z"/>
	<path class="st1" d="M69.2,75.1c0,0-2.4-1.4-2.7-1.6c-0.5-0.3-0.9-0.9-0.9-1.6V48.7l-25-14.5l0,13c0,1,0,3.1,0,3.1
		s-2.4-1.4-2.7-1.5c-0.5-0.3-0.9-0.9-0.9-1.5V31.1c0-0.6,0.3-1.2,0.9-1.6c0.6-0.3,1.2-0.3,1.8,0l28.6,16.5c0.6,0.3,0.9,0.9,0.9,1.6
		V72C69.2,73,69.2,75.1,69.2,75.1L69.2,75.1L69.2,75.1z"/>
	<path class="st1" d="M47.7,54.4c0,0-2.5-1.4-2.7-1.6c-0.5-0.3-0.8-0.9-0.8-1.5v-7.8c0-1,0-3.1,0-3.1s2.4,1.4,2.7,1.5
		c0.5,0.3,0.9,0.9,0.9,1.6v7.8C47.7,52.3,47.7,54.4,47.7,54.4L47.7,54.4L47.7,54.4z"/>
	<path class="st1" d="M54.9,58.6c0,0-2.4-1.4-2.7-1.6c-0.5-0.3-0.9-0.9-0.9-1.5v-7.8c0-1,0-3.1,0-3.1s2.4,1.4,2.7,1.5
		c0.5,0.3,0.9,0.9,0.9,1.6v7.8C54.9,56.5,54.9,58.6,54.9,58.6L54.9,58.6L54.9,58.6z"/>
	<path class="st1" d="M62,62.7c0,0-2.4-1.4-2.7-1.6c-0.5-0.3-0.9-0.9-0.9-1.6v-7.8c0-1,0-3.1,0-3.1s2.4,1.4,2.7,1.5
		c0.6,0.3,0.9,0.9,0.9,1.6v7.8C62,60.6,62,62.7,62,62.7L62,62.7L62,62.7z"/>
</g>
</svg>
